<svg id="Layer_1" data-name="Layer 1" xmlns="http://www.w3.org/2000/svg" viewBox="0 0 240 240"><defs><style>.cls-1{fill:none;stroke:#fff;stroke-miterlimit:10;stroke-width:2px;}.cls-2,.cls-3{fill:#fff;}.cls-3{fill-rule:evenodd;}</style></defs><title>Artboard 1</title><circle class="cls-1" cx="120" cy="120" r="110"/><path class="cls-2" d="M120,14.39l85.9,168H34.1l85.9-168M120,10,30.83,184.43H209.17L120,10Z"/><path class="cls-3" d="M82.41,108.65c-.83,7.47,1.56,18.55,6.29,18.46,5.71-.11,12.24-3.78,31.61-4.36,7.92-.24,18.83-.37,25.35.89,6.26,1.21,9.22,5.69,10.75,4.22,4.15-4-2.37-19.32-5.88-19.7-3.1-.34-4.54,2.58-7.54,3.78-5.62,2.25-44.41,1.24-52.42.1C87.43,111.58,82.41,108.65,82.41,108.65Z"/></svg>