<svg width="351" height="414" viewBox="0 0 351 414" version="1.1" xmlns="http://www.w3.org/2000/svg" xmlns:xlink="http://www.w3.org/1999/xlink">
<title>shape2</title>
<desc>Created using Figma</desc>
<g id="Canvas" transform="translate(-841 -236)">
<g id="shape2">
<g id="Vector 2">
<use xlink:href="#path0_stroke" transform="translate(842.5 244)" fill="#666666"/>
</g>
<g id="Ellipse 3">
<use xlink:href="#path1_fill" transform="translate(921 451)" fill="#999999"/>
</g>
<g id="Ellipse 3">
<use xlink:href="#path1_fill" transform="translate(1019 548)" fill="#999999"/>
</g>
<g id="Ellipse 3">
<use xlink:href="#path1_fill" transform="translate(1100 375)" fill="#999999"/>
</g>
<g id="Ellipse 3">
<use xlink:href="#path1_fill" transform="translate(1019 236)" fill="#999999"/>
</g>
</g>
</g>
<defs>
<path id="path0_stroke" d="M 184.5 0L 184.931 -0.253713L 184.444 -1.08117L 184.045 -0.207494L 184.5 0ZM 0 404.5L -0.454913 404.293L -0.948475 405.375L 0.170005 404.97L 0 404.5ZM 348.5 278.5L 348.67 278.97L 349.237 278.765L 348.931 278.246L 348.5 278.5ZM 266.5 392.5L 266.151 392.858L 267 393.685L 267 392.5L 266.5 392.5ZM 184.5 312.655L 184.151 313.013L 184.151 313.013L 184.5 312.655ZM 0.170005 404.97L 348.67 278.97L 348.33 278.03L -0.170005 404.03L 0.170005 404.97ZM 348.931 278.246L 266.931 138.996L 266.069 139.504L 348.069 278.754L 348.931 278.246ZM 266.931 138.996L 184.931 -0.253713L 184.069 0.253713L 266.069 139.504L 266.931 138.996ZM 184.045 -0.207494L 85.2954 216.293L 86.2052 216.707L 184.955 0.207494L 184.045 -0.207494ZM 85.2954 216.293L -0.454913 404.293L 0.454913 404.707L 86.2052 216.707L 85.2954 216.293ZM 266.304 138.79L 85.5538 216.04L 85.9468 216.96L 266.696 139.71L 266.304 138.79ZM 267 392.5L 267 139.25L 266 139.25L 266 392.5L 267 392.5ZM 85.4015 216.858L 184.151 313.013L 184.849 312.297L 86.0991 216.142L 85.4015 216.858ZM 184.151 313.013L 266.151 392.858L 266.849 392.142L 184.849 312.297L 184.151 313.013ZM 184 0L 184 312.655L 185 312.655L 185 0L 184 0Z"/>
<path id="path1_fill" d="M 16 8C 16 12.4183 12.4183 16 8 16C 3.58172 16 0 12.4183 0 8C 0 3.58172 3.58172 0 8 0C 12.4183 0 16 3.58172 16 8Z"/>
</defs>
</svg>
