<svg width="398" height="391" viewBox="0 0 398 391" version="1.1" xmlns="http://www.w3.org/2000/svg" xmlns:xlink="http://www.w3.org/1999/xlink">
<title>shape1</title>
<desc>Created using Figma</desc>
<g id="Canvas" transform="translate(-135 -157)">
<g id="shape1">
<g id="Vector">
<use xlink:href="#path0_stroke" transform="translate(201.667 200.902)" fill="#666666"/>
</g>
<g id="Ellipse">
<mask id="mask0_outline_ins">
<use xlink:href="#path1_fill" fill="white" transform="translate(135 157)"/>
</mask>
<g mask="url(#mask0_outline_ins)">
<use xlink:href="#path2_stroke_2x" transform="translate(135 157)" fill="#666666"/>
</g>
</g>
<g id="Ellipse 2">
<use xlink:href="#path3_fill" transform="translate(202.789 191.268)" fill="#999999"/>
</g>
<g id="Ellipse 2">
<use xlink:href="#path3_fill" transform="translate(443.439 191.268)" fill="#999999"/>
</g>
<g id="Ellipse 2">
<use xlink:href="#path3_fill" transform="translate(189.78 487.203)" fill="#999999"/>
</g>
<g id="Ellipse 2">
<use xlink:href="#path3_fill" transform="translate(517 329)" fill="#999999"/>
</g>
<g id="Ellipse 2">
<use xlink:href="#path3_fill" transform="translate(482.463 454.683)" fill="#999999"/>
</g>
</g>
</g>
<defs>
<path id="path0_stroke" d="M 8.13008 0L 8.13008 -0.5L 7.6437 -0.5L 7.63027 -0.0138069L 8.13008 0ZM 0 294.309L -0.499809 294.295L -0.51579 294.874L 0.0589089 294.805L 0 294.309ZM 287.805 260.163L 287.864 260.659L 288.202 260.619L 288.288 260.29L 287.805 260.163ZM 320.325 136.585L 320.809 136.713L 320.858 136.525L 320.768 136.353L 320.325 136.585ZM 248.78 0L 249.223 -0.232004L 249.083 -0.5L 248.78 -0.5L 248.78 0ZM 7.63027 -0.0138069L -0.499809 294.295L 0.499809 294.323L 8.62989 0.0138069L 7.63027 -0.0138069ZM 0.0589089 294.805L 287.864 260.659L 287.746 259.666L -0.0589089 293.812L 0.0589089 294.805ZM 288.288 260.29L 320.809 136.713L 319.842 136.458L 287.321 260.035L 288.288 260.29ZM 320.526 136.127L 8.33049 -0.458079L 7.92967 0.458079L 320.125 137.043L 320.526 136.127ZM 8.13008 0.5L 248.78 0.5L 248.78 -0.5L 8.13008 -0.5L 8.13008 0.5ZM 248.338 0.232004L 319.882 136.817L 320.768 136.353L 249.223 -0.232004L 248.338 0.232004ZM 248.399 -0.322782L -0.381853 293.986L 0.381853 294.632L 249.162 0.322782L 248.399 -0.322782ZM 288.299 260.088L 249.275 -0.0741702L 248.286 0.0741702L 287.31 260.237L 288.299 260.088Z"/>
<path id="path1_fill" d="M 390.244 195.122C 390.244 302.885 302.885 390.244 195.122 390.244C 87.3591 390.244 0 302.885 0 195.122C 0 87.3591 87.3591 0 195.122 0C 302.885 0 390.244 87.3591 390.244 195.122Z"/>
<path id="path2_stroke_2x" d="M 389.244 195.122C 389.244 302.333 302.333 389.244 195.122 389.244L 195.122 391.244C 303.437 391.244 391.244 303.437 391.244 195.122L 389.244 195.122ZM 195.122 389.244C 87.9114 389.244 1 302.333 1 195.122L -1 195.122C -1 303.437 86.8068 391.244 195.122 391.244L 195.122 389.244ZM 1 195.122C 1 87.9114 87.9114 1 195.122 1L 195.122 -1C 86.8068 -1 -1 86.8068 -1 195.122L 1 195.122ZM 195.122 1C 302.333 1 389.244 87.9114 389.244 195.122L 391.244 195.122C 391.244 86.8068 303.437 -1 195.122 -1L 195.122 1Z"/>
<path id="path3_fill" d="M 16 8C 16 12.4183 12.4183 16 8 16C 3.58172 16 0 12.4183 0 8C 0 3.58172 3.58172 0 8 0C 12.4183 0 16 3.58172 16 8Z"/>
</defs>
</svg>
