<svg width="396" height="396" viewBox="0 0 396 396" version="1.1" xmlns="http://www.w3.org/2000/svg" xmlns:xlink="http://www.w3.org/1999/xlink">
<title>shape3</title>
<desc>Created using Figma</desc>
<g id="Canvas" transform="translate(-198 -621)">
<g id="shape3">
<g id="Ellipse 4">
<mask id="mask0_outline_ins">
<use xlink:href="#path0_fill" fill="white" transform="translate(336 621)"/>
</mask>
<g mask="url(#mask0_outline_ins)">
<use xlink:href="#path1_stroke_2x" transform="translate(336 621)" fill="#666666"/>
</g>
</g>
<g id="Ellipse 4">
<mask id="mask1_outline_ins">
<use xlink:href="#path0_fill" fill="white" transform="matrix(6.12323e-17 -1 1 6.12323e-17 198 879)"/>
</mask>
<g mask="url(#mask1_outline_ins)">
<use xlink:href="#path1_stroke_2x" transform="matrix(6.12323e-17 -1 1 6.12323e-17 198 879)" fill="#666666"/>
</g>
</g>
<g id="Ellipse 4">
<mask id="mask2_outline_ins">
<use xlink:href="#path2_fill" fill="white" transform="matrix(0.707107 -0.707107 0.707107 0.707107 240.274 748)"/>
</mask>
<g mask="url(#mask2_outline_ins)">
<use xlink:href="#path3_stroke_2x" transform="matrix(0.707107 -0.707107 0.707107 0.707107 240.274 748)" fill="#666666"/>
</g>
</g>
<g id="Ellipse 4">
<mask id="mask3_outline_ins">
<use xlink:href="#path2_fill" fill="white" transform="matrix(0.707107 0.707107 -0.707107 0.707107 466.274 663)"/>
</mask>
<g mask="url(#mask3_outline_ins)">
<use xlink:href="#path3_stroke_2x" transform="matrix(0.707107 0.707107 -0.707107 0.707107 466.274 663)" fill="#666666"/>
</g>
</g>
<g id="Ellipse 5">
<use xlink:href="#path4_fill" transform="translate(426 663)" fill="#999999"/>
</g>
<g id="Ellipse 5">
<use xlink:href="#path4_fill" transform="translate(537 850)" fill="#999999"/>
</g>
<g id="Ellipse 5">
<use xlink:href="#path4_fill" transform="translate(305 756)" fill="#999999"/>
</g>
<g id="Ellipse 5">
<use xlink:href="#path4_fill" transform="translate(431 942)" fill="#999999"/>
</g>
</g>
</g>
<defs>
<path id="path0_fill" d="M 120 198C 120 307.352 93.1371 396 60 396C 26.8629 396 0 307.352 0 198C 0 88.6476 26.8629 0 60 0C 93.1371 0 120 88.6476 120 198Z"/>
<path id="path1_stroke_2x" d="M 119 198C 119.002 252.609 112.307 301.963 101.469 337.717C 96.0605 355.573 89.6655 369.923 82.5418 379.858C 75.4352 389.777 67.8041 395 60 395L 60 397C 68.7645 397 76.9176 391.142 84.1676 381.023C 91.4006 370.918 97.9345 356.272 103.383 338.297C 114.261 302.389 120.998 252.744 121 198L 119 198ZM 60 395C 52.1959 395 44.5648 389.777 37.4582 379.858C 30.3345 369.923 23.9395 355.573 18.5306 337.717C 7.6928 301.963 0.997728 252.609 1 198L -1 198C -0.997728 252.744 5.73865 302.389 16.6166 338.297C 22.0655 356.272 28.5994 370.918 35.8324 381.023C 43.0824 391.142 51.2355 397 60 397L 60 395ZM 1 198C 0.997728 143.391 7.6928 94.0367 18.5306 58.2829C 23.9395 40.4267 30.3345 26.0765 37.4582 16.1422C 44.5648 6.22299 52.1959 1 60 1L 60 -1C 51.2355 -1 43.0824 4.85796 35.8324 14.9774C 28.5994 25.0818 22.0655 39.7281 16.6166 57.7028C 5.73865 93.6109 -0.997728 143.256 -1 198L 1 198ZM 60 1C 67.8041 1 75.4352 6.22299 82.5418 16.1422C 89.6655 26.0765 96.0605 40.4267 101.469 58.2829C 112.307 94.0367 119.002 143.391 119 198L 121 198C 120.998 143.256 114.261 93.6109 103.383 57.7028C 97.9345 39.7281 91.4006 25.0818 84.1676 14.9774C 76.9176 4.85796 68.7645 -1 60 -1L 60 1Z"/>
<path id="path2_fill" d="M 120 160C 120 248.366 93.1371 320 60 320C 26.8629 320 0 248.366 0 160C 0 71.6344 26.8629 0 60 0C 93.1371 0 120 71.6344 120 160Z"/>
<path id="path3_stroke_2x" d="M 119 160C 119.003 204.1 112.319 243.923 101.49 272.786C 96.0891 287.196 89.7161 298.753 82.6064 306.763C 75.5372 314.736 67.8956 319 60 319L 60 321C 68.673 321 76.8157 316.309 84.103 308.09C 91.3499 299.907 97.9058 288.032 103.363 273.488C 114.25 244.442 120.997 204.266 121 160L 119 160ZM 60 319C 52.1044 319 44.4628 314.736 37.3936 306.763C 30.2839 298.753 23.9109 287.196 18.5099 272.786C 7.68146 243.923 0.996543 204.1 1 160L -1 160C -0.996543 204.266 5.75 244.442 16.6373 273.488C 22.0942 288.032 28.6501 299.907 35.897 308.09C 43.1843 316.309 51.327 321 60 321L 60 319ZM 1 160C 0.996543 115.9 7.68146 76.0768 18.5099 47.214C 23.9109 32.804 30.2839 21.2468 37.3936 13.237C 44.4628 5.26352 52.1044 1 60 1L 60 -1C 51.327 -1 43.1843 3.69079 35.897 11.9102C 28.6501 20.0933 22.0942 31.9675 16.6373 46.5118C 5.75 75.5577 -0.996543 115.734 -1 160L 1 160ZM 60 1C 67.8956 1 75.5372 5.26352 82.6064 13.237C 89.7161 21.2468 96.0891 32.804 101.49 47.214C 112.319 76.0768 119.003 115.9 119 160L 121 160C 120.997 115.734 114.25 75.5577 103.363 46.5118C 97.9058 31.9675 91.3499 20.0933 84.103 11.9102C 76.8157 3.69079 68.673 -1 60 -1L 60 1Z"/>
<path id="path4_fill" d="M 16 8C 16 12.4183 12.4183 16 8 16C 3.58172 16 0 12.4183 0 8C 0 3.58172 3.58172 0 8 0C 12.4183 0 16 3.58172 16 8Z"/>
</defs>
</svg>
