<svg width="30" height="30" viewBox="0 0 30 30" version="1.1" xmlns="http://www.w3.org/2000/svg" xmlns:xlink="http://www.w3.org/1999/xlink">
<title>shape5</title>
<desc>Created using Figma</desc>
<g id="Canvas" transform="translate(-1608 0)">
<clipPath id="clip-0" clip-rule="evenodd">
<path d="M 1608 0L 1638 0L 1638 30L 1608 30L 1608 0Z" fill="#FFFFFF"/>
</clipPath>
<g id="shape5" clip-path="url(#clip-0)">
<g id="shape4">
<g id="Rectangle">
<mask id="mask0_outline_ins">
<use xlink:href="#path0_fill" fill="white" transform="translate(1612 4)"/>
</mask>
<g mask="url(#mask0_outline_ins)">
<use xlink:href="#path1_stroke_2x" transform="translate(1612 4)" fill="#999999"/>
</g>
</g>
<g id="Ellipse 6">
<use xlink:href="#path2_fill" transform="translate(1608 0)" fill="#333333"/>
</g>
</g>
</g>
</g>
<defs>
<path id="path0_fill" d="M 0 0L 26 0L 26 26L 0 26L 0 0Z"/>
<path id="path1_stroke_2x" d="M 0 0L 0 -1L -1 -1L -1 0L 0 0ZM 26 0L 27 0L 27 -1L 26 -1L 26 0ZM 26 26L 26 27L 27 27L 27 26L 26 26ZM 0 26L -1 26L -1 27L 0 27L 0 26ZM 0 1L 26 1L 26 -1L 0 -1L 0 1ZM 25 0L 25 26L 27 26L 27 0L 25 0ZM 26 25L 0 25L 0 27L 26 27L 26 25ZM 1 26L 1 0L -1 0L -1 26L 1 26Z"/>
<path id="path2_fill" d="M 8 4C 8 6.20914 6.20914 8 4 8C 1.79086 8 0 6.20914 0 4C 0 1.79086 1.79086 0 4 0C 6.20914 0 8 1.79086 8 4Z"/>
</defs>
</svg>
